<?xml version="1.0"?>
<!DOCTYPE svg PUBLIC "-//W3C//DTD SVG 1.1//EN" "http://www.w3.org/Graphics/SVG/1.1/DTD/svg11.dtd">
<svg xmlns="http://www.w3.org/2000/svg" xmlns:xl="http://www.w3.org/1999/xlink" version="1.1" viewBox="-5 80 578 721" width="578pt" height="721pt"><metadata xmlns:dc="http://purl.org/dc/elements/1.1/"><dc:date>2012-11-05 22:32Z</dc:date><!-- Produced by OmniGraffle Professional 5.4.2 --></metadata><defs></defs><g stroke="none" stroke-opacity="1" stroke-dasharray="none" fill="none" fill-opacity="1"><title>Canvas 1</title><rect fill="white" width="1728" height="864"/><g><title>Layer 1</title><rect x="201.98999" y="429.11497" width="360" height="360" fill="white"/><rect x="201.98999" y="429.11497" width="360" height="360" stroke="black" stroke-linecap="round" stroke-linejoin="round" stroke-width="1"/><line x1="280.11998" y1="753.115" x2="321.26998" y2="753.115" stroke="black" stroke-linecap="butt" stroke-linejoin="miter" stroke-width="1"/><line x1="279.14" y1="735.835" x2="279.14" y2="753.115" stroke="black" stroke-linecap="butt" stroke-linejoin="miter" stroke-width="1"/><line x1="279.14" y1="735.835" x2="320.28" y2="735.835" stroke="black" stroke-linecap="butt" stroke-linejoin="miter" stroke-width="1"/><line x1="320.28" y1="735.835" x2="320.28" y2="753.115" stroke="black" stroke-linecap="butt" stroke-linejoin="miter" stroke-width="1"/><line x1="362.42999" y1="752.115" x2="403.56999" y2="752.115" stroke="black" stroke-linecap="butt" stroke-linejoin="miter" stroke-width="1"/><line x1="361.42" y1="735.835" x2="361.42" y2="753.115" stroke="black" stroke-linecap="butt" stroke-linejoin="miter" stroke-width="1"/><line x1="361.42" y1="735.835" x2="402.56" y2="735.835" stroke="black" stroke-linecap="butt" stroke-linejoin="miter" stroke-width="1"/><line x1="402.56" y1="735.835" x2="402.56" y2="753.115" stroke="black" stroke-linecap="butt" stroke-linejoin="miter" stroke-width="1"/><line x1="443.7" y1="753.115" x2="484.85" y2="753.115" stroke="black" stroke-linecap="butt" stroke-linejoin="miter" stroke-width="1"/><line x1="443.71" y1="735.835" x2="443.71" y2="753.115" stroke="black" stroke-linecap="butt" stroke-linejoin="miter" stroke-width="1"/><line x1="443.71" y1="735.835" x2="484.85" y2="735.835" stroke="black" stroke-linecap="butt" stroke-linejoin="miter" stroke-width="1"/><line x1="484.85" y1="735.835" x2="484.85" y2="753.115" stroke="black" stroke-linecap="butt" stroke-linejoin="miter" stroke-width="1"/><line x1="508.71" y1="753.115" x2="525.99" y2="754.115" stroke="black" stroke-linecap="butt" stroke-linejoin="miter" stroke-width="1"/><line x1="279.12998" y1="465.11498" x2="320.27998" y2="465.11498" stroke="black" stroke-linecap="butt" stroke-linejoin="miter" stroke-width="1"/><line x1="279.14" y1="465.11498" x2="279.14" y2="482.39498" stroke="black" stroke-linecap="butt" stroke-linejoin="miter" stroke-width="1"/><line x1="279.14" y1="482.39498" x2="320.28" y2="482.39498" stroke="black" stroke-linecap="butt" stroke-linejoin="miter" stroke-width="1"/><line x1="320.28" y1="465.11498" x2="320.28" y2="482.39498" stroke="black" stroke-linecap="butt" stroke-linejoin="miter" stroke-width="1"/><line x1="361.41998" y1="465.11498" x2="402.55998" y2="465.11498" stroke="black" stroke-linecap="butt" stroke-linejoin="miter" stroke-width="1"/><line x1="361.42" y1="465.11498" x2="361.42" y2="482.39498" stroke="black" stroke-linecap="butt" stroke-linejoin="miter" stroke-width="1"/><line x1="361.42" y1="482.39498" x2="402.56" y2="482.39498" stroke="black" stroke-linecap="butt" stroke-linejoin="miter" stroke-width="1"/><line x1="402.56" y1="465.11498" x2="402.56" y2="482.39498" stroke="black" stroke-linecap="butt" stroke-linejoin="miter" stroke-width="1"/><line x1="444.7" y1="465.11498" x2="485.85" y2="465.11498" stroke="black" stroke-linecap="butt" stroke-linejoin="miter" stroke-width="1"/><line x1="443.71" y1="465.11498" x2="443.71" y2="482.39498" stroke="black" stroke-linecap="butt" stroke-linejoin="miter" stroke-width="1"/><line x1="443.71" y1="482.39498" x2="484.85" y2="482.39498" stroke="black" stroke-linecap="butt" stroke-linejoin="miter" stroke-width="1"/><line x1="484.85" y1="465.11498" x2="484.85" y2="482.39498" stroke="black" stroke-linecap="butt" stroke-linejoin="miter" stroke-width="1"/><line x1="508.71" y1="463.12497" x2="532.57" y2="463.12497" stroke="black" stroke-linecap="butt" stroke-linejoin="miter" stroke-width="1"/><line x1="525.99" y1="754.115" x2="525.99" y2="712.975" stroke="black" stroke-linecap="butt" stroke-linejoin="miter" stroke-width="1"/><line x1="255.27" y1="711.975" x2="237.99" y2="711.975" stroke="black" stroke-linecap="butt" stroke-linejoin="miter" stroke-width="1"/><line x1="255.27" y1="711.975" x2="255.27" y2="670.835" stroke="black" stroke-linecap="butt" stroke-linejoin="miter" stroke-width="1"/><line x1="255.27" y1="670.835" x2="237.99" y2="670.835" stroke="black" stroke-linecap="butt" stroke-linejoin="miter" stroke-width="1"/><line x1="237.99" y1="710.97497" x2="237.99" y2="669.82497" stroke="black" stroke-linecap="butt" stroke-linejoin="miter" stroke-width="1"/><line x1="255.27" y1="629.685" x2="237.99" y2="629.685" stroke="black" stroke-linecap="butt" stroke-linejoin="miter" stroke-width="1"/><line x1="255.27" y1="629.685" x2="255.27" y2="588.545" stroke="black" stroke-linecap="butt" stroke-linejoin="miter" stroke-width="1"/><line x1="255.27" y1="588.545" x2="237.99" y2="588.545" stroke="black" stroke-linecap="butt" stroke-linejoin="miter" stroke-width="1"/><line x1="237.99" y1="629.685" x2="237.99" y2="588.545" stroke="black" stroke-linecap="butt" stroke-linejoin="miter" stroke-width="1"/><line x1="255.27" y1="547.40498" x2="237.99" y2="547.40498" stroke="black" stroke-linecap="butt" stroke-linejoin="miter" stroke-width="1"/><line x1="255.27" y1="547.40498" x2="255.27" y2="506.26498" stroke="black" stroke-linecap="butt" stroke-linejoin="miter" stroke-width="1"/><line x1="255.27" y1="506.26498" x2="237.99" y2="506.26498" stroke="black" stroke-linecap="butt" stroke-linejoin="miter" stroke-width="1"/><line x1="237.99" y1="547.40497" x2="237.99" y2="506.25497" stroke="black" stroke-linecap="butt" stroke-linejoin="miter" stroke-width="1"/><line x1="508.71" y1="753.115" x2="508.71" y2="711.975" stroke="black" stroke-linecap="butt" stroke-linejoin="miter" stroke-width="1"/><line x1="525.99" y1="711.975" x2="508.71" y2="711.975" stroke="black" stroke-linecap="butt" stroke-linejoin="miter" stroke-width="1"/><line x1="525.99" y1="670.82497" x2="525.99" y2="629.68497" stroke="black" stroke-linecap="butt" stroke-linejoin="miter" stroke-width="1"/><line x1="525.99" y1="670.835" x2="508.71" y2="670.835" stroke="black" stroke-linecap="butt" stroke-linejoin="miter" stroke-width="1"/><line x1="508.71" y1="670.835" x2="508.71" y2="629.685" stroke="black" stroke-linecap="butt" stroke-linejoin="miter" stroke-width="1"/><line x1="525.99" y1="629.685" x2="508.71" y2="629.685" stroke="black" stroke-linecap="butt" stroke-linejoin="miter" stroke-width="1"/><line x1="526" y1="588.54497" x2="526" y2="547.40497" stroke="black" stroke-linecap="butt" stroke-linejoin="miter" stroke-width="1"/><line x1="525.99" y1="588.545" x2="508.71" y2="588.545" stroke="black" stroke-linecap="butt" stroke-linejoin="miter" stroke-width="1"/><line x1="508.71" y1="588.545" x2="508.71" y2="547.40498" stroke="black" stroke-linecap="butt" stroke-linejoin="miter" stroke-width="1"/><line x1="525.99" y1="547.40498" x2="508.71" y2="547.40498" stroke="black" stroke-linecap="butt" stroke-linejoin="miter" stroke-width="1"/><line x1="526" y1="505.26497" x2="526" y2="464.12497" stroke="black" stroke-linecap="butt" stroke-linejoin="miter" stroke-width="1"/><line x1="525.99" y1="506.26498" x2="508.71" y2="506.26498" stroke="black" stroke-linecap="butt" stroke-linejoin="miter" stroke-width="1"/><line x1="508.71" y1="506.26498" x2="508.71" y2="465.11498" stroke="black" stroke-linecap="butt" stroke-linejoin="miter" stroke-width="1"/><line x1="9.224992" y1="438.35" x2="57.224992" y2="438.35" stroke="black" stroke-linecap="butt" stroke-linejoin="miter" stroke-width="1"/><line x1="57.224992" y1="421.07" x2="57.224992" y2="438.35" stroke="black" stroke-linecap="butt" stroke-linejoin="miter" stroke-width="1"/><line x1="57.224992" y1="421.07" x2="105.22499" y2="421.07" stroke="black" stroke-linecap="butt" stroke-linejoin="miter" stroke-width="1"/><line x1="105.22499" y1="421.07" x2="105.22499" y2="438.35" stroke="black" stroke-linecap="butt" stroke-linejoin="miter" stroke-width="1"/><line x1="105.22499" y1="438.35" x2="135.94499" y2="438.35" stroke="black" stroke-linecap="butt" stroke-linejoin="miter" stroke-width="1"/><line x1="9.224992" y1="150.35" x2="57.224992" y2="150.35" stroke="black" stroke-linecap="butt" stroke-linejoin="miter" stroke-width="1"/><line x1="57.224992" y1="150.35" x2="57.224992" y2="167.63" stroke="black" stroke-linecap="butt" stroke-linejoin="miter" stroke-width="1"/><line x1="57.224992" y1="167.63" x2="105.22499" y2="167.63" stroke="black" stroke-linecap="butt" stroke-linejoin="miter" stroke-width="1"/><line x1="105.22499" y1="150.35" x2="105.22499" y2="167.63" stroke="black" stroke-linecap="butt" stroke-linejoin="miter" stroke-width="1"/><line x1="105.22499" y1="150.35" x2="135.94499" y2="150.35" stroke="black" stroke-linecap="butt" stroke-linejoin="miter" stroke-width="1"/><line x1="9.224992" y1="438.35" x2="9.224992" y2="397.2" stroke="black" stroke-linecap="butt" stroke-linejoin="miter" stroke-width="1"/><line x1="26.504992" y1="397.2" x2="9.224992" y2="397.2" stroke="black" stroke-linecap="butt" stroke-linejoin="miter" stroke-width="1"/><line x1="26.504992" y1="397.2" x2="26.504992" y2="356.06" stroke="black" stroke-linecap="butt" stroke-linejoin="miter" stroke-width="1"/><line x1="26.504992" y1="356.06" x2="9.224992" y2="356.06" stroke="black" stroke-linecap="butt" stroke-linejoin="miter" stroke-width="1"/><line x1="9.224992" y1="356.06" x2="9.224992" y2="314.92" stroke="black" stroke-linecap="butt" stroke-linejoin="miter" stroke-width="1"/><line x1="26.504992" y1="314.92" x2="9.224992" y2="314.92" stroke="black" stroke-linecap="butt" stroke-linejoin="miter" stroke-width="1"/><line x1="26.504992" y1="314.92" x2="26.504992" y2="273.78" stroke="black" stroke-linecap="butt" stroke-linejoin="miter" stroke-width="1"/><line x1="26.504992" y1="273.78" x2="9.224992" y2="273.78" stroke="black" stroke-linecap="butt" stroke-linejoin="miter" stroke-width="1"/><line x1="9.224992" y1="273.78" x2="9.224992" y2="232.63" stroke="black" stroke-linecap="butt" stroke-linejoin="miter" stroke-width="1"/><line x1="26.504992" y1="232.63" x2="9.224992" y2="232.63" stroke="black" stroke-linecap="butt" stroke-linejoin="miter" stroke-width="1"/><line x1="26.504992" y1="232.63" x2="26.504992" y2="191.49" stroke="black" stroke-linecap="butt" stroke-linejoin="miter" stroke-width="1"/><line x1="26.504992" y1="191.49" x2="9.224992" y2="191.49" stroke="black" stroke-linecap="butt" stroke-linejoin="miter" stroke-width="1"/><line x1="9.224992" y1="191.49" x2="9.224992" y2="150.35" stroke="black" stroke-linecap="butt" stroke-linejoin="miter" stroke-width="1"/><line x1="135.94499" y1="438.35" x2="135.94499" y2="397.2" stroke="black" stroke-linecap="butt" stroke-linejoin="miter" stroke-width="1"/><line x1="153.22499" y1="397.2" x2="135.94499" y2="397.2" stroke="black" stroke-linecap="butt" stroke-linejoin="miter" stroke-width="1"/><line x1="153.22499" y1="397.2" x2="153.22499" y2="356.06" stroke="black" stroke-linecap="butt" stroke-linejoin="miter" stroke-width="1"/><line x1="153.22499" y1="356.06" x2="135.94499" y2="356.06" stroke="black" stroke-linecap="butt" stroke-linejoin="miter" stroke-width="1"/><line x1="135.94499" y1="356.06" x2="135.94499" y2="314.92" stroke="black" stroke-linecap="butt" stroke-linejoin="miter" stroke-width="1"/><line x1="153.22499" y1="314.92" x2="135.94499" y2="314.92" stroke="black" stroke-linecap="butt" stroke-linejoin="miter" stroke-width="1"/><line x1="153.22499" y1="314.92" x2="153.22499" y2="273.78" stroke="black" stroke-linecap="butt" stroke-linejoin="miter" stroke-width="1"/><line x1="153.22499" y1="273.78" x2="135.94499" y2="273.78" stroke="black" stroke-linecap="butt" stroke-linejoin="miter" stroke-width="1"/><line x1="135.94499" y1="273.78" x2="135.94499" y2="232.63" stroke="black" stroke-linecap="butt" stroke-linejoin="miter" stroke-width="1"/><line x1="153.22499" y1="232.63" x2="135.94499" y2="232.63" stroke="black" stroke-linecap="butt" stroke-linejoin="miter" stroke-width="1"/><line x1="153.22499" y1="232.63" x2="153.22499" y2="191.49" stroke="black" stroke-linecap="butt" stroke-linejoin="miter" stroke-width="1"/><line x1="153.22499" y1="191.49" x2="135.94499" y2="191.49" stroke="black" stroke-linecap="butt" stroke-linejoin="miter" stroke-width="1"/><line x1="135.94499" y1="191.49" x2="135.94499" y2="150.35" stroke="black" stroke-linecap="butt" stroke-linejoin="miter" stroke-width="1"/><line x1="26.504996" y1="464.37254" x2="26.504996" y2="488.24254" stroke="black" stroke-linecap="butt" stroke-linejoin="miter" stroke-width="1"/><line x1="26.504996" y1="488.24254" x2="9.224996" y2="488.24254" stroke="black" stroke-linecap="butt" stroke-linejoin="miter" stroke-width="1"/><line x1="9.224996" y1="488.24254" x2="9.224996" y2="529.38254" stroke="black" stroke-linecap="butt" stroke-linejoin="miter" stroke-width="1"/><line x1="26.504996" y1="529.38254" x2="9.224996" y2="529.38254" stroke="black" stroke-linecap="butt" stroke-linejoin="miter" stroke-width="1"/><line x1="26.504996" y1="529.38254" x2="26.504996" y2="570.52254" stroke="black" stroke-linecap="butt" stroke-linejoin="miter" stroke-width="1"/><line x1="26.504996" y1="570.52254" x2="9.224996" y2="570.52254" stroke="black" stroke-linecap="butt" stroke-linejoin="miter" stroke-width="1"/><line x1="9.224996" y1="570.52254" x2="9.224996" y2="611.66254" stroke="black" stroke-linecap="butt" stroke-linejoin="miter" stroke-width="1"/><line x1="26.504996" y1="611.66254" x2="9.224996" y2="611.66254" stroke="black" stroke-linecap="butt" stroke-linejoin="miter" stroke-width="1"/><line x1="26.504996" y1="611.66254" x2="26.504996" y2="652.81254" stroke="black" stroke-linecap="butt" stroke-linejoin="miter" stroke-width="1"/><line x1="26.504996" y1="652.81254" x2="9.224996" y2="652.81254" stroke="black" stroke-linecap="butt" stroke-linejoin="miter" stroke-width="1"/><line x1="9.224996" y1="652.81254" x2="9.224996" y2="693.95254" stroke="black" stroke-linecap="butt" stroke-linejoin="miter" stroke-width="1"/><line x1="26.504996" y1="693.95254" x2="9.224996" y2="693.95254" stroke="black" stroke-linecap="butt" stroke-linejoin="miter" stroke-width="1"/><line x1="26.504996" y1="693.95254" x2="26.504996" y2="717.81254" stroke="black" stroke-linecap="butt" stroke-linejoin="miter" stroke-width="1"/><line x1="135.944996" y1="464.37254" x2="135.944996" y2="488.24254" stroke="black" stroke-linecap="butt" stroke-linejoin="miter" stroke-width="1"/><line x1="153.225" y1="488.24254" x2="135.944996" y2="488.24254" stroke="black" stroke-linecap="butt" stroke-linejoin="miter" stroke-width="1"/><line x1="153.225" y1="488.24254" x2="153.225" y2="529.38254" stroke="black" stroke-linecap="butt" stroke-linejoin="miter" stroke-width="1"/><line x1="153.225" y1="529.38254" x2="135.944996" y2="529.38254" stroke="black" stroke-linecap="butt" stroke-linejoin="miter" stroke-width="1"/><line x1="135.944996" y1="529.38254" x2="135.944996" y2="570.52254" stroke="black" stroke-linecap="butt" stroke-linejoin="miter" stroke-width="1"/><line x1="153.225" y1="570.52254" x2="135.944996" y2="570.52254" stroke="black" stroke-linecap="butt" stroke-linejoin="miter" stroke-width="1"/><line x1="153.225" y1="570.52254" x2="153.225" y2="611.66254" stroke="black" stroke-linecap="butt" stroke-linejoin="miter" stroke-width="1"/><line x1="153.225" y1="611.66254" x2="135.944996" y2="611.66254" stroke="black" stroke-linecap="butt" stroke-linejoin="miter" stroke-width="1"/><line x1="135.944996" y1="611.66254" x2="135.944996" y2="652.81254" stroke="black" stroke-linecap="butt" stroke-linejoin="miter" stroke-width="1"/><line x1="153.225" y1="652.81254" x2="135.944996" y2="652.81254" stroke="black" stroke-linecap="butt" stroke-linejoin="miter" stroke-width="1"/><line x1="153.225" y1="652.81254" x2="153.225" y2="693.95254" stroke="black" stroke-linecap="butt" stroke-linejoin="miter" stroke-width="1"/><line x1="153.225" y1="693.95254" x2="135.944996" y2="693.95254" stroke="black" stroke-linecap="butt" stroke-linejoin="miter" stroke-width="1"/><line x1="135.944996" y1="693.95254" x2="135.944996" y2="717.81254" stroke="black" stroke-linecap="butt" stroke-linejoin="miter" stroke-width="1"/><line x1="26.504996" y1="464.37254" x2="57.224996" y2="464.37254" stroke="black" stroke-linecap="butt" stroke-linejoin="miter" stroke-width="1"/><line x1="57.224996" y1="464.37254" x2="57.224996" y2="447.09254" stroke="black" stroke-linecap="butt" stroke-linejoin="miter" stroke-width="1"/><line x1="57.224996" y1="447.09254" x2="105.224996" y2="447.09254" stroke="black" stroke-linecap="butt" stroke-linejoin="miter" stroke-width="1"/><line x1="105.224996" y1="464.37254" x2="105.224996" y2="447.09254" stroke="black" stroke-linecap="butt" stroke-linejoin="miter" stroke-width="1"/><line x1="105.224996" y1="464.37254" x2="135.944996" y2="464.37254" stroke="black" stroke-linecap="butt" stroke-linejoin="miter" stroke-width="1"/><line x1="26.504996" y1="717.81254" x2="57.224996" y2="717.81254" stroke="black" stroke-linecap="butt" stroke-linejoin="miter" stroke-width="1"/><line x1="57.224996" y1="735.09254" x2="57.224996" y2="717.81254" stroke="black" stroke-linecap="butt" stroke-linejoin="miter" stroke-width="1"/><line x1="57.224996" y1="735.09254" x2="105.224996" y2="735.09254" stroke="black" stroke-linecap="butt" stroke-linejoin="miter" stroke-width="1"/><line x1="105.224996" y1="735.09254" x2="105.224996" y2="717.81254" stroke="black" stroke-linecap="butt" stroke-linejoin="miter" stroke-width="1"/><line x1="105.224996" y1="717.81254" x2="135.944996" y2="717.81254" stroke="black" stroke-linecap="butt" stroke-linejoin="miter" stroke-width="1"/><line x1="161.995" y1="381.825" x2="203.145" y2="381.825" stroke="black" stroke-linecap="butt" stroke-linejoin="miter" stroke-width="1"/><line x1="203.145" y1="364.545" x2="203.145" y2="381.825" stroke="black" stroke-linecap="butt" stroke-linejoin="miter" stroke-width="1"/><line x1="203.145" y1="364.545" x2="244.285" y2="364.545" stroke="black" stroke-linecap="butt" stroke-linejoin="miter" stroke-width="1"/><line x1="244.285" y1="364.545" x2="244.285" y2="381.825" stroke="black" stroke-linecap="butt" stroke-linejoin="miter" stroke-width="1"/><line x1="244.285" y1="381.825" x2="285.425" y2="381.825" stroke="black" stroke-linecap="butt" stroke-linejoin="miter" stroke-width="1"/><line x1="285.425" y1="364.545" x2="285.425" y2="381.825" stroke="black" stroke-linecap="butt" stroke-linejoin="miter" stroke-width="1"/><line x1="285.425" y1="364.545" x2="326.565" y2="364.545" stroke="black" stroke-linecap="butt" stroke-linejoin="miter" stroke-width="1"/><line x1="326.565" y1="364.545" x2="326.565" y2="381.825" stroke="black" stroke-linecap="butt" stroke-linejoin="miter" stroke-width="1"/><line x1="326.565" y1="381.825" x2="367.715" y2="381.825" stroke="black" stroke-linecap="butt" stroke-linejoin="miter" stroke-width="1"/><line x1="367.715" y1="364.545" x2="367.715" y2="381.825" stroke="black" stroke-linecap="butt" stroke-linejoin="miter" stroke-width="1"/><line x1="367.715" y1="364.545" x2="408.855" y2="364.545" stroke="black" stroke-linecap="butt" stroke-linejoin="miter" stroke-width="1"/><line x1="408.855" y1="364.545" x2="408.855" y2="381.825" stroke="black" stroke-linecap="butt" stroke-linejoin="miter" stroke-width="1"/><line x1="408.855" y1="381.825" x2="432.715" y2="381.825" stroke="black" stroke-linecap="butt" stroke-linejoin="miter" stroke-width="1"/><line x1="161.995" y1="93.825" x2="203.145" y2="93.825" stroke="black" stroke-linecap="butt" stroke-linejoin="miter" stroke-width="1"/><line x1="203.145" y1="93.825" x2="203.145" y2="111.105" stroke="black" stroke-linecap="butt" stroke-linejoin="miter" stroke-width="1"/><line x1="203.145" y1="111.105" x2="244.285" y2="111.105" stroke="black" stroke-linecap="butt" stroke-linejoin="miter" stroke-width="1"/><line x1="244.285" y1="93.825" x2="244.285" y2="111.105" stroke="black" stroke-linecap="butt" stroke-linejoin="miter" stroke-width="1"/><line x1="244.285" y1="93.825" x2="285.425" y2="93.825" stroke="black" stroke-linecap="butt" stroke-linejoin="miter" stroke-width="1"/><line x1="285.425" y1="93.825" x2="285.425" y2="111.105" stroke="black" stroke-linecap="butt" stroke-linejoin="miter" stroke-width="1"/><line x1="285.425" y1="111.105" x2="326.565" y2="111.105" stroke="black" stroke-linecap="butt" stroke-linejoin="miter" stroke-width="1"/><line x1="326.565" y1="93.825" x2="326.565" y2="111.105" stroke="black" stroke-linecap="butt" stroke-linejoin="miter" stroke-width="1"/><line x1="326.565" y1="93.825" x2="367.715" y2="93.825" stroke="black" stroke-linecap="butt" stroke-linejoin="miter" stroke-width="1"/><line x1="367.715" y1="93.825" x2="367.715" y2="111.105" stroke="black" stroke-linecap="butt" stroke-linejoin="miter" stroke-width="1"/><line x1="367.715" y1="111.105" x2="408.855" y2="111.105" stroke="black" stroke-linecap="butt" stroke-linejoin="miter" stroke-width="1"/><line x1="408.855" y1="93.825" x2="408.855" y2="111.105" stroke="black" stroke-linecap="butt" stroke-linejoin="miter" stroke-width="1"/><line x1="408.855" y1="93.825" x2="432.715" y2="93.825" stroke="black" stroke-linecap="butt" stroke-linejoin="miter" stroke-width="1"/><line x1="161.995" y1="381.825" x2="161.995" y2="340.685" stroke="black" stroke-linecap="butt" stroke-linejoin="miter" stroke-width="1"/><line x1="179.275" y1="340.685" x2="161.995" y2="340.685" stroke="black" stroke-linecap="butt" stroke-linejoin="miter" stroke-width="1"/><line x1="179.275" y1="340.685" x2="179.275" y2="299.535" stroke="black" stroke-linecap="butt" stroke-linejoin="miter" stroke-width="1"/><line x1="179.275" y1="299.535" x2="161.995" y2="299.535" stroke="black" stroke-linecap="butt" stroke-linejoin="miter" stroke-width="1"/><line x1="161.995" y1="299.535" x2="161.995" y2="258.395" stroke="black" stroke-linecap="butt" stroke-linejoin="miter" stroke-width="1"/><line x1="179.275" y1="258.395" x2="161.995" y2="258.395" stroke="black" stroke-linecap="butt" stroke-linejoin="miter" stroke-width="1"/><line x1="179.275" y1="258.395" x2="179.275" y2="217.255" stroke="black" stroke-linecap="butt" stroke-linejoin="miter" stroke-width="1"/><line x1="179.275" y1="217.255" x2="161.995" y2="217.255" stroke="black" stroke-linecap="butt" stroke-linejoin="miter" stroke-width="1"/><line x1="161.995" y1="217.255" x2="161.995" y2="176.115" stroke="black" stroke-linecap="butt" stroke-linejoin="miter" stroke-width="1"/><line x1="179.275" y1="176.115" x2="161.995" y2="176.115" stroke="black" stroke-linecap="butt" stroke-linejoin="miter" stroke-width="1"/><line x1="179.275" y1="176.115" x2="179.275" y2="134.965" stroke="black" stroke-linecap="butt" stroke-linejoin="miter" stroke-width="1"/><line x1="179.275" y1="134.965" x2="161.995" y2="134.965" stroke="black" stroke-linecap="butt" stroke-linejoin="miter" stroke-width="1"/><line x1="161.995" y1="134.965" x2="161.995" y2="93.825" stroke="black" stroke-linecap="butt" stroke-linejoin="miter" stroke-width="1"/><line x1="432.715" y1="381.825" x2="432.715" y2="340.685" stroke="black" stroke-linecap="butt" stroke-linejoin="miter" stroke-width="1"/><line x1="449.995" y1="340.685" x2="432.715" y2="340.685" stroke="black" stroke-linecap="butt" stroke-linejoin="miter" stroke-width="1"/><line x1="449.995" y1="340.685" x2="449.995" y2="299.535" stroke="black" stroke-linecap="butt" stroke-linejoin="miter" stroke-width="1"/><line x1="449.995" y1="299.535" x2="432.715" y2="299.535" stroke="black" stroke-linecap="butt" stroke-linejoin="miter" stroke-width="1"/><line x1="432.715" y1="299.535" x2="432.715" y2="258.395" stroke="black" stroke-linecap="butt" stroke-linejoin="miter" stroke-width="1"/><line x1="449.995" y1="258.395" x2="432.715" y2="258.395" stroke="black" stroke-linecap="butt" stroke-linejoin="miter" stroke-width="1"/><line x1="449.995" y1="258.395" x2="449.995" y2="217.255" stroke="black" stroke-linecap="butt" stroke-linejoin="miter" stroke-width="1"/><line x1="449.995" y1="217.255" x2="432.715" y2="217.255" stroke="black" stroke-linecap="butt" stroke-linejoin="miter" stroke-width="1"/><line x1="432.715" y1="217.255" x2="432.715" y2="176.115" stroke="black" stroke-linecap="butt" stroke-linejoin="miter" stroke-width="1"/><line x1="449.995" y1="176.115" x2="432.715" y2="176.115" stroke="black" stroke-linecap="butt" stroke-linejoin="miter" stroke-width="1"/><line x1="449.995" y1="176.115" x2="449.995" y2="134.965" stroke="black" stroke-linecap="butt" stroke-linejoin="miter" stroke-width="1"/><line x1="449.995" y1="134.965" x2="432.715" y2="134.965" stroke="black" stroke-linecap="butt" stroke-linejoin="miter" stroke-width="1"/><line x1="432.715" y1="134.965" x2="432.715" y2="93.825" stroke="black" stroke-linecap="butt" stroke-linejoin="miter" stroke-width="1"/></g></g></svg>
